<svg version="1.1" xmlns="http://www.w3.org/2000/svg" xmlns:xlink="http://www.w3.org/1999/xlink" width="48" height="48"><defs><linearGradient x1="0" y1="0" x2="0" y2="0" gradientUnits="userSpaceOnUse" id="color-1"><stop offset="1" stop-color="#000000" stop-opacity="0"></stop><stop offset="1" stop-color="#000000" stop-opacity="0"></stop></linearGradient><filter id="dropshadow-base"><feColorMatrix type="matrix" values="0 0 0 0 0  0 0 0 0 0  0 0 0 0 0  0 0 0 .8 0"></feColorMatrix> <feOffset dx="0" dy="1"></feOffset> <feGaussianBlur stdDeviation="1"></feGaussianBlur> <feComposite in="SourceGraphic"></feComposite></filter><filter id="dropshadow-banner" x="-10%" y="-10%" width="120%" height="130%"><feColorMatrix type="matrix" values="0 0 0 0 0  0 0 0 0 0  0 0 0 0 0  0 0 0 .4 0"></feColorMatrix> <feOffset dx="0" dy="1"></feOffset> <feGaussianBlur stdDeviation="0.5"></feGaussianBlur> <feComposite in="SourceGraphic"></feComposite></filter></defs><g fill="none" fill-rule="nonzero" stroke="none" stroke-width="none" stroke-linecap="butt" stroke-linejoin="miter" stroke-miterlimit="10" stroke-dasharray="" stroke-dashoffset="0" font-family="none" font-weight="none" font-size="none" text-anchor="none" style="mix-blend-mode: normal"><path d="M2,24c0,-12.15026 9.84974,-22 22,-22c12.15026,0 22,9.84974 22,22c0,12.15026 -9.84974,22 -22,22c-12.15026,0 -22,-9.84974 -22,-22z" id="base 1 9" fill="#48d021" stroke-width="1"></path><path d="" fill="url(#color-1)" stroke-width="1"></path><path d="M13.523,14.75559v-3.69776h2.46518v3.69776h3.69776v2.46518h-3.69776v3.69776h-2.46518v-3.69776h-3.69776v-2.46518zM17.22077,22.15112v-3.69776h3.69776v-3.69776h8.62811l2.25564,2.46518h3.9073c1.35585,0 2.46518,1.10933 2.46518,2.46518v14.79105c0,1.35585 -1.10933,2.46518 -2.46518,2.46518h-19.7214c-1.35585,0 -2.46518,-1.10933 -2.46518,-2.46518v-12.32588zM25.84888,33.24441c3.40194,0 6.16294,-2.761 6.16294,-6.16294c0,-3.40194 -2.761,-6.16294 -6.16294,-6.16294c-3.40194,0 -6.16294,2.761 -6.16294,6.16294c0,3.40194 2.761,6.16294 6.16294,6.16294zM21.9046,27.08147c0,2.18168 1.7626,3.94428 3.94428,3.94428c2.18168,0 3.94428,-1.7626 3.94428,-3.94428c0,-2.18168 -1.7626,-3.94428 -3.94428,-3.94428c-2.18168,0 -3.94428,1.7626 -3.94428,3.94428z" fill="none" stroke-width="0"></path><path d="M13.523,14.75559v-3.69776h2.46518v3.69776h3.69776v2.46518h-3.69776v3.69776h-2.46518v-3.69776h-3.69776v-2.46518zM17.22077,22.15112v-3.69776h3.69776v-3.69776h8.62811l2.25564,2.46518h3.9073c1.35585,0 2.46518,1.10933 2.46518,2.46518v14.79105c0,1.35585 -1.10933,2.46518 -2.46518,2.46518h-19.7214c-1.35585,0 -2.46518,-1.10933 -2.46518,-2.46518v-12.32588zM25.84888,33.24441c3.40194,0 6.16294,-2.761 6.16294,-6.16294c0,-3.40194 -2.761,-6.16294 -6.16294,-6.16294c-3.40194,0 -6.16294,2.761 -6.16294,6.16294c0,3.40194 2.761,6.16294 6.16294,6.16294zM25.84888,23.13719c2.18168,0 3.94428,1.7626 3.94428,3.94428c0,2.18168 -1.7626,3.94428 -3.94428,3.94428c-2.18168,0 -3.94428,-1.7626 -3.94428,-3.94428c0,-2.18168 1.7626,-3.94428 3.94428,-3.94428z" fill="#5e30e8" stroke-width="0"></path><path d="M2,24c0,-12.15026 9.84974,-22 22,-22c12.15026,0 22,9.84974 22,22c0,12.15026 -9.84974,22 -22,22c-12.15026,0 -22,-9.84974 -22,-22z" id="base 1 5 1" fill="none" stroke-width="1"></path><path d="M2,24c0,-12.15026 9.84974,-22 22,-22c12.15026,0 22,9.84974 22,22c0,12.15026 -9.84974,22 -22,22c-12.15026,0 -22,-9.84974 -22,-22z" id="base 1 1 1" fill="none" stroke-width="1"></path><g fill="#000000" stroke-width="1" font-family="Roboto, sans-serif" font-weight="400" font-size="14" text-anchor="start"></g><rect x="2" y="2" width="44" height="22" fill="none" stroke-width="1"></rect><path d="M2,24v-22h44v22z" fill="none" stroke-width="1"></path><path d="M2,24v-22h44v22z" fill="none" stroke-width="1"></path><path d="M2,24v-22h44v22z" fill="none" stroke-width="1"></path><path d="M2,24v-22h44v22z" fill="none" stroke-width="1"></path><g fill="#000000" stroke-width="1" font-family="Roboto, sans-serif" font-weight="400" font-size="14" text-anchor="start"></g><rect x="2" y="2" width="44" height="22" fill="none" stroke-width="1"></rect><path d="M2,24v-22h44v22z" fill="none" stroke-width="1"></path><path d="M2,24v-22h44v22z" fill="none" stroke-width="1"></path><path d="M2,24v-22h44v22z" fill="none" stroke-width="1"></path><path d="M2,24v-22h44v22z" fill="none" stroke-width="1"></path></g></svg>