<svg version="1.1" xmlns="http://www.w3.org/2000/svg" xmlns:xlink="http://www.w3.org/1999/xlink" width="48" height="48"><defs><linearGradient x1="13.27732" y1="13.27732" x2="36.1369" y2="36.1369" gradientUnits="userSpaceOnUse" id="color-1"><stop offset="0.41" stop-color="#000000" stop-opacity="0"></stop><stop offset="1" stop-color="#000000" stop-opacity="0"></stop></linearGradient><filter id="dropshadow-base"><feColorMatrix type="matrix" values="0 0 0 0 0  0 0 0 0 0  0 0 0 0 0  0 0 0 .8 0"></feColorMatrix> <feOffset dx="0" dy="1"></feOffset> <feGaussianBlur stdDeviation="1"></feGaussianBlur> <feComposite in="SourceGraphic"></feComposite></filter><filter id="dropshadow-banner" x="-10%" y="-10%" width="120%" height="130%"><feColorMatrix type="matrix" values="0 0 0 0 0  0 0 0 0 0  0 0 0 0 0  0 0 0 .4 0"></feColorMatrix> <feOffset dx="0" dy="1"></feOffset> <feGaussianBlur stdDeviation="0.5"></feGaussianBlur> <feComposite in="SourceGraphic"></feComposite></filter></defs><g fill="none" fill-rule="nonzero" stroke="none" stroke-width="none" stroke-linecap="butt" stroke-linejoin="miter" stroke-miterlimit="10" stroke-dasharray="" stroke-dashoffset="0" font-family="none" font-weight="none" font-size="none" text-anchor="none" style="mix-blend-mode: normal"><path d="M2,24c0,-12.15026 9.84974,-22 22,-22c12.15026,0 22,9.84974 22,22c0,12.15026 -9.84974,22 -22,22c-12.15026,0 -22,-9.84974 -22,-22z" id="base 1 5" fill="#48d021" stroke-width="1"></path><path d="M25.41421,14.69153c-2.57344,0 -4.92707,0.90607 -6.77674,2.41797l2.81276,4.86956l4.20487,-7.28461c-0.08007,-0.00193 -0.16037,-0.00291 -0.24089,-0.00291zM22.56734,23.91304l-1.41421,-1.41421l-3.92986,-6.80354c1.84966,-1.5119 4.20329,-2.41797 6.77674,-2.41797c0.79884,0 1.57623,0.0965 2.32146,0.26271l1.10102,1.10102l0.37871,-0.65602c1.43425,0.54446 2.72273,1.38638 3.788,2.45165l1.41421,1.41421c1.20053,1.20053 2.11756,2.68473 2.64025,4.34654h-0.79348l1.07227,1.07227c0.13939,0.69161 0.21445,1.41003 0.21445,2.14454c0,2.79326 -1.07763,5.32917 -2.82543,7.23781l-1.41421,-1.41421l-5.10936,-8.84621l-0.11263,-0.19419l-1.38437,0l-1.10078,-1.10078l-1.56381,2.70918zM28.20211,23.80581l4.05431,7.01953c1.53508,-1.85464 2.46626,-4.22881 2.46626,-6.82534c0,-0.24537 -0.00838,-0.48894 -0.02473,-0.73032h-6.8068zM29.2154,15.39923l-3.10809,5.38397h8.12213c-0.41998,-1.33525 -1.09454,-2.55584 -1.9662,-3.60674c-0.90327,-0.74935 -1.93139,-1.35341 -3.04784,-1.77722zM14.69153,25.41421c0,0.24537 0.00838,0.48894 0.02473,0.73032h6.8068l-1.23847,-2.14454l-3.12658,-5.41139c-1.53521,1.85468 -2.46648,4.22895 -2.46648,6.82561zM13.49177,26.14454c-0.13939,-0.69161 -0.21445,-1.41003 -0.21445,-2.14454c0,-2.79326 1.07763,-5.32917 2.82543,-7.23781l1.41421,1.41421l4.18185,7.23781l1.041,1.80259l1.38351,0l1.09786,1.09786l0.63385,-1.09786l0.99185,-1.71563l1.41421,1.41421l3.92986,6.80354c-1.84966,1.5119 -4.20329,2.41797 -6.77674,2.41797c-0.79884,0 -1.57623,-0.0965 -2.32682,-0.26271l-1.09762,-1.09762l-0.37675,0.65263c-1.43425,-0.54446 -2.72273,-1.38638 -3.788,-2.45165l-1.41421,-1.41421c-1.20053,-1.20053 -2.11756,-2.68473 -2.64025,-4.34654l0.79348,0zM24,34.72268c2.57344,0 4.92707,-0.90607 6.77674,-2.41797l-2.81445,-4.87249l-0.69305,1.19879l-3.51527,6.08863c0.08178,0.00202 0.16379,0.00304 0.24603,0.00304zM20.19881,34.01499l3.10809,-5.38397h-8.12213c0.41998,1.33525 1.09454,2.55584 1.9662,3.60674c0.90327,0.74935 1.93139,1.35341 3.04784,1.77722z" fill="url(#color-1)" stroke-width="1"></path><path d="M21.2121,22.3916l5.10936,-8.85158c-0.74523,-0.1662 -1.52262,-0.26271 -2.32146,-0.26271c-2.57344,0 -4.92707,0.90607 -6.77674,2.41797l3.92986,6.80354zM34.22944,20.78319c-0.98649,-3.13638 -3.37765,-5.64013 -6.42825,-6.79818l-3.9245,6.79818zM34.50823,21.85546h-8.03129l0.31096,0.53613l5.10936,8.84621c1.7478,-1.90864 2.82543,-4.44455 2.82543,-7.23781c0,-0.7345 -0.07506,-1.45292 -0.21445,-2.14454zM20.28459,24l-4.18185,-7.23781c-1.7478,1.90864 -2.82543,4.44455 -2.82543,7.23781c0,0.7345 0.07506,1.45292 0.21445,2.14454h8.03129zM13.77056,27.21681c0.98649,3.13638 3.37765,5.64013 6.42825,6.79818l3.9245,-6.79818zM25.85502,27.21681l-4.18185,7.24317c0.75059,0.1662 1.52798,0.26271 2.32682,0.26271c2.57344,0 4.92707,-0.90607 6.77674,-2.41797l-3.92986,-6.80354z" fill="none" stroke-width="0"></path><path d="M21.15313,22.49882l-3.92986,-6.80354c1.84966,-1.5119 4.20329,-2.41797 6.77674,-2.41797c0.79884,0 1.57623,0.0965 2.32146,0.26271l-5.10936,8.85158zM23.87669,20.78319l3.9245,-6.79818c3.0506,1.15805 5.44176,3.6618 6.42825,6.79818zM34.72268,24c0,2.79326 -1.07763,5.32917 -2.82543,7.23781l-5.10936,-8.84621l-0.31096,-0.53613h8.03129c0.13939,0.69161 0.21445,1.41003 0.21445,2.14454zM21.52306,26.14454h-8.03129c-0.13939,-0.69161 -0.21445,-1.41003 -0.21445,-2.14454c0,-2.79326 1.07763,-5.32917 2.82543,-7.23781l4.18185,7.23781zM24.12331,27.21681l-3.9245,6.79818c-3.0506,-1.15805 -5.44176,-3.6618 -6.42825,-6.79818zM26.84687,25.50118l3.92986,6.80354c-1.84966,1.5119 -4.20329,2.41797 -6.77674,2.41797c-0.79884,0 -1.57623,-0.0965 -2.32682,-0.26271l4.18185,-7.24317z" fill="#5e30e8" stroke-width="0"></path><path d="M2,24c0,-12.15026 9.84974,-22 22,-22c12.15026,0 22,9.84974 22,22c0,12.15026 -9.84974,22 -22,22c-12.15026,0 -22,-9.84974 -22,-22z" id="base 1 1 1" fill="none" stroke-width="1"></path><g fill="#000000" stroke-width="1" font-family="Roboto, sans-serif" font-weight="400" font-size="14" text-anchor="start"></g><rect x="2" y="2" width="44" height="22" fill="none" stroke-width="1"></rect><path d="M2,24v-22h44v22z" fill="none" stroke-width="1"></path><path d="M2,24v-22h44v22z" fill="none" stroke-width="1"></path><path d="M2,24v-22h44v22z" fill="none" stroke-width="1"></path><path d="M2,24v-22h44v22z" fill="none" stroke-width="1"></path></g></svg>